<svg xmlns="http://www.w3.org/2000/svg" viewBox="0 0 30.21 52.76"><g id="Layer_2" data-name="Layer 2"><g id="female-5"><path id="right-leg" d="M20.15,41H25l2.35,9a1.91,1.91,0,0,1-1,2.39s-2.85,1.45-3.57-1.15S20.15,41,20.15,41Z"/><path id="left-leg" d="M13.89,41H18.5V43.2a2,2,0,0,1-.84,1.41l-6.47,5.72s-1.81,1.09-2.91-.28-.74-2.44-.18-3S14,42,14,42Z"/><path id="hand" d="M5.9,29.12l2.26.41s.69-1.07-.86-1.28C7.3,28.25,5.77,27.82,5.9,29.12Z"/><path id="bag" d="M11.18,30.27,9.08,30l.09-1c.25-1.44-2.07-1.71-2.07-1.71a1.85,1.85,0,0,0-2.33,1.89,21.3,21.3,0,0,1-2.25-.47C1,28.36.78,30.13.78,30.13S.13,34.29,0,35.89s1.64,1.65,1.64,1.65S6,38.1,8.89,38.63s2.83-.77,2.83-.77.46-3,.72-5.13S11.18,30.27,11.18,30.27ZM8.58,30l-3.13-.65C5.35,27.41,7,27.82,7,27.82l.91.25C9.17,28.41,8.58,30,8.58,30Z"/><path id="arm" d="M22.81,25v3.5l6.51-1.75a1.46,1.46,0,0,0,.81-1.89s0-1.77-2.28-1.16S22.81,25,22.81,25Z"/><path id="body" d="M7.68,22.65A3.3,3.3,0,0,1,9.21,20.7c1.34-.85,7.6-5.19,7.6-5.19s5.65-1.75,5.5,3.71,0,11.05,0,11.05L26.45,40.7H11.32L15,30.45V20.92l-4,2.67L9.24,27.67A3.84,3.84,0,0,0,5.78,27Z"/><path id="head" d="M24.48,6.44A5.82,5.82,0,0,0,18.84,2,6.27,6.27,0,0,0,18,2.1a2.65,2.65,0,1,0-4.11,2.73A5.84,5.84,0,1,0,24.43,9.5,2.07,2.07,0,0,0,26.64,8V6.44Zm-4.69,2.9a2,2,0,0,1-2-2,1.92,1.92,0,0,1,.1-.59l3.86,0a2.32,2.32,0,0,1,.11.64A2,2,0,0,1,19.79,9.34Zm4.77-.28a1.81,1.81,0,0,1-2-2.29h3.58V8C26,8.9,24.58,9.06,24.56,9.06Z"/></g></g></svg>