<svg xmlns="http://www.w3.org/2000/svg" viewBox="0 0 19.21 46.86"><g id="Layer_2" data-name="Layer 2"><g id="female-2"><path id="legs" d="M6.79,33.42h8.68l3.08,10.77a2,2,0,0,1-1.31,2.54s-2.41.7-3.13-1.18-2.89-10.91-2.89-10.91l-.66,4.27s.15.92-1.14,1.64-5.8,3-5.8,3A2.43,2.43,0,0,1,.86,42.46c-.83-1.62,0-2.54.57-2.8s5-2.76,5-2.76Z"/><path id="body" d="M10.15,17.39s.37-.57.78-.55.88-.29,1.78,1.82,6.5,14.12,6.5,14.12H2.9L5,27.66s3.11.74,5.46-3.27C10.5,24.39,12.84,19.86,10.15,17.39Z"/><path id="back" d="M8.94,18.83l-3.17,7a3.5,3.5,0,0,0,3.17-2.59S10.47,20.17,8.94,18.83Z"/><path id="backpack" d="M6.71,15.66c-2.72-1.36-3.53.68-3.53.68S1.23,20.47.31,22.66s.48,2.87.48,2.87-.65.24,3.6,1.56,6.08-3.46,6.08-3.46C12.73,18.42,9.42,17,6.71,15.66ZM9.16,23.8c-1.71,3.11-4.31,2.28-4.31,2.28L8.66,18a2.81,2.81,0,0,1,1.46,2.17A7.46,7.46,0,0,1,9.16,23.8Z"/><polygon id="bow" points="8.15 0 10.87 1.82 13.61 0.11 13.61 3.85 10.88 2.1 8.15 3.85 8.15 0"/><circle id="head" cx="11.14" cy="9.83" r="5.62"/></g></g></svg>