<svg xmlns="http://www.w3.org/2000/svg" viewBox="0 0 19.48 57.81"><g id="Layer_2" data-name="Layer 2"><g id="female-4"><path id="right-leg" d="M11.91,47.27h4.83l2.1,7.8a2.31,2.31,0,0,1-1.29,2.42s-2.18,1.15-3.05-.92S11.91,47.27,11.91,47.27Z"/><path id="left-leg" d="M5.71,47.27H10.3v2.38s.11.55-.65,1.27-5.56,5.24-5.56,5.24a2.24,2.24,0,0,1-2.9-.3,2.16,2.16,0,0,1-.27-3c.24-.31,4.78-4.55,4.78-4.55Z"/><path id="babybody" d="M10.85,33.94S12.57,32.09,15,34l.68.52s.43,1.3-1,.87L14,34.85l0,1.08s.91.55.89,1.2c0,0,.09.06-.41.88s-.83.69-.83.69-.73.17-.36-.85c0,0,.51-1-.44-1.11s-.55.76-.33,1.07a.79.79,0,0,1-.07.84.92.92,0,0,1-1.19-.41c-.46-.75-.33-.56-.33-.56s-.27-1.17.63-1.53V35l-.82.53s-1.17.44-.68-1C10.08,34.62,10.5,34.23,10.85,33.94Z"/><circle id="babyhead" cx="12.87" cy="31.12" r="1.84"/><path id="body" d="M19.47,34.07c0-.91-.3-4.57-3.37-5.81s-2.7-3.21-2.7-3.21c-.16-8-7.1-3.72-7.1-3.72L.63,27.48a2,2,0,0,0-.55,2s1,3.86,1.7,5.72a1.67,1.67,0,1,0,3.17-1l-1.4-4.78,2-2.29V39.06L3,46.71H16.34c-1.57-4.86-1.76-5,.75-7.45S19.47,35,19.47,34.07ZM12.71,39a5.12,5.12,0,1,1,5.11-5.11A5.11,5.11,0,0,1,12.71,39Z"/><path id="head" d="M10.93,7.18a6,6,0,0,0-2.08.38l-.12,0-.11,0-.06,0c-1.74.77-1.71-.1-1.71-.1C3.34,3.87.49,9.19.49,9.19l2.59,2c.41-2.31,1.64-2.71,1.64-2.71,2-.65,1.93.14,1.55.88a5.53,5.53,0,0,0-.64,1h0a6,6,0,1,0,5.31-3.18Z"/><path id="heart" d="M11.05.94A1.83,1.83,0,0,1,13.66.42s1.54,1.27.3,2.5a38.28,38.28,0,0,1-2.91,2.51L8,2.91A1.93,1.93,0,0,1,8.2.41S9-.8,11.05.94Z"/></g></g></svg>