<svg xmlns="http://www.w3.org/2000/svg" viewBox="0 0 23.48 52.5"><g id="Layer_2" data-name="Layer 2"><g id="female-3"><path id="right-leg" d="M13.2,41.18H18l2.31,8.73s.67,1.71-1.51,2.45A2.24,2.24,0,0,1,15.9,51C15.05,48.83,13.2,41.18,13.2,41.18Z"/><path id="left-leg" d="M6.77,41.18h4.81s-.53,3.94-.53,3.91.1.91-1.49,1.74L3.45,50A2.48,2.48,0,0,1,.5,49.09a2,2,0,0,1,.36-2.83L6.77,43Z"/><path id="arm" d="M16.86,27.69,18,30.64,22.86,29a2.06,2.06,0,0,0,.48-2.14s-.26-1.5-2.76-.69A21.43,21.43,0,0,0,16.86,27.69Z"/><path id="body" d="M10.83,17.52s1.36-.92,1.87.44,8.93,22.82,8.9,22.82H2.12l7-18.5-5.49,3,1.56,5.6a1.85,1.85,0,0,1-1,2.11A1.45,1.45,0,0,1,2,32c-.06-.36-2-7.42-2-7.42a1.55,1.55,0,0,1,.8-1.57C1.77,22.59,10.83,17.52,10.83,17.52Z"/><path id="Head" d="M15.27,7.05V4.45L11.38,5.6,7.48,4.45v3a5.2,5.2,0,0,0-1.57,3.68,5.53,5.53,0,0,0,5.7,5.35,5.53,5.53,0,0,0,5.69-5.35A5.18,5.18,0,0,0,15.27,7.05Z"/><polygon id="Hat" points="2.71 2.58 11.48 0 20.02 2.48 11.48 4.99 2.71 2.58"/></g></g></svg>