<svg xmlns="http://www.w3.org/2000/svg" viewBox="0 0 19.06 39.21"><g id="Layer_2" data-name="Layer 2"><g id="female-1"><path id="arm" d="M13.38,20.14S14.9,23,14.9,23l3.67-1.45a1.65,1.65,0,0,0,.3-1.94c-.54-1.18-1.35-1-2.36-.71S13.38,20.14,13.38,20.14Z"/><path id="legs" d="M5.58,28.3h8.83l2.49,8.2a2.14,2.14,0,0,1-1.56,2.58s-2.27.74-2.86-1.28S10.1,30,10.1,30l-.6,3s.08.6-1.59,1.41S3,36.68,3,36.68s-2,.56-2.7-1.21.07-2.61.64-2.91,4.38-2,4.38-2Z"/><path id="body" d="M2.55,28H17.13l-6-11.63s-.79-1.84-3.12-.69a49.92,49.92,0,0,1-5.58,2.2s-1,.2-1,1.77S.91,24.31.91,24.31s.32,1.44,1.51,1.34,1.84-.72,1.84-1.41.12-3.62.12-3.62l2.31-.91Z"/><polygon id="bow" points="4.91 0 4.42 3.81 0.08 4.93 3.44 8.34 4.55 4.01 8.43 3.29 4.91 0"/><circle id="head" cx="9.66" cy="9.48" r="5.24"/></g></g></svg>