<svg xmlns="http://www.w3.org/2000/svg" viewBox="0 0 22.5 49.78"><g id="Layer_2" data-name="Layer 2"><g id="female-6"><path id="right-leg" d="M12.39,38.12h4.8l2.41,8.69s.39,2.51-1.36,2.87c0,0-2.61.67-3.09-1.36S12.39,38.12,12.39,38.12Z"/><path id="left-leg" d="M6.11,38.12H11l-.09,2.31a2.18,2.18,0,0,1-.72,1c-.57.46-6.61,5.91-6.61,5.91a2.3,2.3,0,0,1-3-.39,2.18,2.18,0,0,1,.09-3.07l5.56-4.84Z"/><path id="arm" d="M16.09,22.46v3.43L21.64,25a1.34,1.34,0,0,0,.8-1.75,1.87,1.87,0,0,0-2.36-1.47C19.31,22,16.09,22.46,16.09,22.46Z"/><path id="body" d="M.85,21.34l8-6.83s5.87-2,6.88,3.81V29.84l2.69,7.77H3.79l2.4-7.95V21.43L3.74,23.31,5.3,28.68s.5,1-.9,1.92c0,0-1.69.75-2.41-.7L.24,23.38S-.09,21.93.85,21.34Z"/><path id="head" d="M19.35,5.68a2.42,2.42,0,0,0-.47.05,5.91,5.91,0,0,0-5.44-3.58,7,7,0,0,0-.92.07,2.66,2.66,0,0,0-5.28.44A2.68,2.68,0,0,0,8.46,4.89a5.81,5.81,0,0,0-.93,3.17,5.91,5.91,0,0,0,11.41,2.16,2.85,2.85,0,0,0,.41,0,2.29,2.29,0,0,0,0-4.58Zm-4.69,4.37A2.09,2.09,0,1,1,16.75,8,2.09,2.09,0,0,1,14.66,10.05Zm4.68-.25A1.84,1.84,0,1,1,21.18,8,1.84,1.84,0,0,1,19.34,9.8Z"/></g></g></svg>