<svg xmlns="http://www.w3.org/2000/svg" viewBox="0 0 23.4 44.55"><g id="Layer_2" data-name="Layer 2"><g id="female-7"><path id="hand" d="M19.49,22.94s1-1,1.19,0,0,1.21,0,1.29-1.16.86-1.16.86Z"/><path id="cane" d="M17.63,22.94a2.46,2.46,0,0,1,2.54-2.42s2.42-.05,2.46,2,0,2.26,0,2.26,0,.71-.6.81c0,0-.7.13-.86-.9l0-1.87a1.07,1.07,0,0,0-2-.12v21s0,.84-.76.84a.76.76,0,0,1-.91-.86C17.61,42.63,17.63,22.94,17.63,22.94Z"/><path id="arm" d="M13.44,20.49l4.37,1.07s-.83.68-.47,3.26l-3.9-1A12.71,12.71,0,0,1,13.44,20.49Z"/><path id="right-leg" d="M9.71,33h4.47l2.4,8.71s.49,2.14-1.32,2.65c0,0-2.38.88-3-1.12S9.71,33,9.71,33Z"/><path id="left-leg" d="M3.9,33.09,8.4,33v2.73a4.93,4.93,0,0,1-.75,1.45c-.73,1.2-3.82,6.14-3.82,6.14a2.06,2.06,0,0,1-2.89.46,2.2,2.2,0,0,1-.57-3.07c1.08-2,3.48-5.88,3.48-5.88Z"/><path id="body" d="M2.68,14.12,11.47,12s3.56.33,2.32,3.41S12.5,27,15.2,32.15c0,0-13.37.81-13.37.54s.66-11.34,5.06-15.88L4,17.5l-.53,4a1.59,1.59,0,0,1-1.67,1.77S0,23.09.12,21.35.78,16,.78,16A2,2,0,0,1,2.68,14.12Z"/><path id="head" d="M17.53,1.87a6.5,6.5,0,0,0-1.09.1A2.51,2.51,0,1,0,12.58,4.6a5.81,5.81,0,0,0-.92,3.14,5.87,5.87,0,1,0,5.87-5.87Z"/></g></g></svg>