<svg xmlns="http://www.w3.org/2000/svg" viewBox="0 0 22.99 52.97"><g id="Layer_2" data-name="Layer 2"><g id="male-3"><path id="Body" d="M21.2,50.14h0L16,32.72V21.19h0a4.15,4.15,0,0,0-6.3-3.43c-.12.07-.22.15-.33.22h0l0,0-.17.14L1.74,24.23c-.9.74-.66,1.06-.66,1.06l1.09,6.77.06,0a1.66,1.66,0,0,0,3.26-.43,1.55,1.55,0,0,0-.07-.43h0L4.63,26l3-2.27L7,41.91l-5.71,2h0a2.1,2.1,0,0,0,.78,4.05,1.72,1.72,0,0,0,.39,0v0l7.32-2.3a2.87,2.87,0,0,0,1.48-2.79c0-2.17.39-6,.39-6h1.12L17.08,51.7l.16-.06a2.12,2.12,0,0,0,4.09-.79A2.08,2.08,0,0,0,21.2,50.14Z"/><path id="Hand" d="M23,25.89a1.66,1.66,0,0,0-1.66-1.66,1.39,1.39,0,0,0-.4.06h0l-.14,0-.11,0-4.06,1.35V29.2l5-1.68a1.9,1.9,0,0,0,.46-.15h0A1.67,1.67,0,0,0,23,25.89Z"/><path id="Head" d="M15.83,7.05V4.45L12.17,5.6,8.51,4.45v3a5.37,5.37,0,1,0,7.32-.38Z"/><polygon id="Hat" points="4.02 2.58 12.27 0 20.3 2.48 12.27 4.99 4.02 2.58"/></g></g></svg>