<svg xmlns="http://www.w3.org/2000/svg" viewBox="0 0 17.69 36.08"><g id="Layer_2" data-name="Layer 2"><g id="male-1"><path id="Arm" d="M13,17.29l2.63-.83a1.6,1.6,0,0,1,2,1,1.62,1.62,0,0,1-1.09,2.13c-1.67.59-3.51,1.2-3.51,1.2Z"/><path id="Body" d="M1.49,15.94l5-3.71s6.08-3.15,6.08,3.09V23l3.41,9.72s.63,2.76-1,3.19-2.6.26-3.19-1.48-2.52-7.52-2.52-7.52l-.42,2.4s.08,1-1.33,1.8A45.36,45.36,0,0,1,3.24,33,2.36,2.36,0,0,1,.15,31.81a2.33,2.33,0,0,1,1.31-2.9c2-.75,3.06-1.24,3.06-1.24L5.24,24l-.17-6.48L3.5,18.67,4,22a1.43,1.43,0,0,1-1.15,1.74s-1.68.46-2.14-1A27.73,27.73,0,0,1,0,18,1.32,1.32,0,0,1,.71,16.5l1-.68"/><path id="Face" d="M4.25,6.15s.33,4.47,5.59,4.17c0,0,5.35-.82,4.1-6.07A20.64,20.64,0,0,1,4.25,6.15Z"/><path id="Hat" d="M4.25,5.3S5.4-3.47,12.4,1.55c0,0,7.13-.32,1.15,2C13.55,3.53,10.36,6,4.25,5.3Z"/></g></g></svg>