<svg xmlns="http://www.w3.org/2000/svg" viewBox="0 0 28.14 43.8"><g id="Layer_2" data-name="Layer 2"><g id="male-7"><path id="cane" d="M21.86,19.2s.4-2.46,2.53-2.43a2.64,2.64,0,0,1,2.94,2v2a.93.93,0,0,1-1.64,0l0-1.95s0-.58-1-.61c0,0-1-.05-1.15.62-.22,1,.14,24.1.14,24.1s-.91,1.92-1.88,0Z"/><path id="hand" d="M24,18.89v1.28s1.47,0,1.47-.94A.86.86,0,0,0,24,18.89Z"/><path id="arm" d="M18.27,16.77h4.84s-1.58.67-1.49,3.15H16.16Z"/><path id="body" d="M3.26,11.08,13.64,8.54s8.23-.39,4.56,7.36l-4.87,7.27s3.86,16.16,3.73,16.29.61,2.5-1.45,2.93c0,0-1.18.75-2.8-1.18L9.57,26.85l-1.18-.09s-.05,6.52-.05,6.66-4.55,8-4.55,8-.57,1-2.76.22a1.9,1.9,0,0,1-.7-2.81c1-2,3.66-6.36,3.66-6.36L3.86,21.67l5.82-8.84-4.83,1-.24,5.45s.12,2.21-1.6,1.89c0,0-1.75.27-1.77-1.19s.4-7.89.4-7.89S1.58,11.24,3.26,11.08Z"/><circle id="head" cx="22.6" cy="5.54" r="5.54"/></g></g></svg>