<svg xmlns="http://www.w3.org/2000/svg" viewBox="0 0 27.35 53.45"><g id="Layer_2" data-name="Layer 2"><g id="male-5"><path id="hand" d="M20.27,23.42l4.14-.59s2.79-.53,2.89,1.35a1.84,1.84,0,0,1-1.58,2.33c-2.07.29-5.12.75-5.12.75Z"/><path id="body" d="M2.1,19.71,9.59,14a4.85,4.85,0,0,1,2.14-.75l.88,0,1.58,1.91L12.91,24l1.58,1.47L16.19,24l-1.41-8.77,1.09-1.61s2.85,1.21,3.21,5.76S20.4,30.12,20.4,30.12l-.53,1.2,1.45,18.74s.62,2.92-2,3.28c0,0-2.53.76-3-1.74s-1.12-16.09-1.12-16.09l-2.82,0-.2,6.84L7.19,50.16s-1.28,2.59-4,.72c0,0-1.78-1.25-.3-3.68s4.24-6,4.24-6l0-7a2.22,2.22,0,0,0-.56-1.77A4.32,4.32,0,0,1,5.91,29c.17-1.51.79-7.88.79-7.88L4.43,22.8l-.62,5.78a1.5,1.5,0,0,1-1.87,1.54S-.3,30.35,0,27.59.49,22,.49,22A3,3,0,0,1,2.1,19.71Z"/><circle id="head" cx="13.93" cy="5.65" r="5.65"/></g></g></svg>