<svg xmlns="http://www.w3.org/2000/svg" viewBox="0 0 22.93 55.64"><g id="Layer_2" data-name="Layer 2"><g id="male-6"><path id="body" d="M1.29,20.94l7.46-4.53s9.72-3.06,8.24,6.07S14.91,34,14.91,34L19.1,53s.49,2.3-1.45,2.62a3.14,3.14,0,0,1-3-1.41L11.05,36.44l-1.74,0-.17,7L4.48,54.08S4,56,1.29,54.81c0,0-2-.33-.85-2.8s4.17-9.72,4.17-9.72V32.17a10.77,10.77,0,0,1,.33-3.25c.46-1.87,1.15-6.8,1.15-6.8L3.76,23.54l-.1,7.39a1.49,1.49,0,0,1-1.61,1.28A1.49,1.49,0,0,1,.08,31a78.73,78.73,0,0,1,.2-8.51A1.59,1.59,0,0,1,1.29,20.94Z"/><path id="head" d="M9.35,7.58a4.63,4.63,0,0,0,0,.65,5.6,5.6,0,1,0,10-3.41Z"/><path d="M17,26.56l5.69,4.79a1.81,1.81,0,0,1,0,1.78,1.61,1.61,0,0,1-2.37.56,31.81,31.81,0,0,1-3.87-3.29Z"/><path id="hat" d="M7.83,7.64,20.74,3.93l-.3-.76-2.07.69-.88-2.79S16.27-1.2,14.28.87s-.93,1-.93,1L11.8,1.59S8.91.84,9.41,4.16s.36,2,.36,2l-2.24.53Z"/></g></g></svg>