<svg xmlns="http://www.w3.org/2000/svg" viewBox="0 0 29.26 51.97"><g id="Layer_2" data-name="Layer 2"><g id="male-4"><path id="hand" d="M5.87,29.1S5.63,28,7,28.25s1.31.43,1.24,1.16Z"/><path id="suitcase" d="M11.25,30.14,9.19,30c.21-2.62-1-2.48-2.76-2.65s-1.61,1.83-1.61,1.83-.78-.08-1.53-.2C.71,28.51.73,30.66.73,30.66S.28,33.21,0,35.34s2,2.15,2,2.15,3.88.48,6.8,1.07,2.84-1.33,2.84-1.33.28-2.1.74-4.37S11.25,30.14,11.25,30.14Zm-2.82-.33-2.92-.48c-.28-1.71.74-1.47.74-1.47l1,.06s-1.83,0,0,0S8.43,29.81,8.43,29.81Z"/><path id="arm" d="M22.23,22v3.55l6.25-2.12a1.35,1.35,0,0,0,.69-1.74c-.41-1.29-1.08-1.47-2.82-.94Z"/><path id="body" d="M25.81,48.86,21.93,30V16.69c0-2.07-2.48-3.58-4.48-3.58a4.16,4.16,0,0,0-3,1.16l-.86,1.08-6.22,4.4A2.1,2.1,0,0,0,6.1,21.3l-.69,5.8c1.26-.61,3.43.23,3.43.23l.61-4.88L12.88,20V31.42l-.48,8s-4.74,3.27-6.11,4.33-.36,2.85-.36,2.85c1.55,1.82,3,.51,3,.51s5.8-4,6.85-4.67a1.94,1.94,0,0,0,1-1.63l.4-7.3,1-.07s2.61,13.3,3.1,16.28a2.42,2.42,0,0,0,3.22,2.11C26.18,51.06,25.81,48.86,25.81,48.86ZM18,25.51,16.33,23.9l1.44-6.79-.67-1.62h2l-.8,1.56s1.41,6.85,1.41,6.9S18,25.51,18,25.51Z"/><circle id="head" cx="17.83" cy="5.5" r="5.5"/></g></g></svg>