<svg xmlns="http://www.w3.org/2000/svg" viewBox="0 0 19.76 40.34"><g id="Layer_2" data-name="Layer 2"><g id="male-2"><path id="Hand" d="M15.94,18.33l2.24-.67a1.55,1.55,0,0,1,1.46.89s.51,1.67-.61,2.12-3.09,1.07-3.09,1.07V18.46"/><path id="Back" d="M6.39,14.08v7.27S8.21,21.2,8,17.66,6.39,14.08,6.39,14.08Z"/><path id="Body" d="M11.12,11s4.23.18,4.23,3.72V26.17L19,37.27s1,2.06-.92,2.82A2.25,2.25,0,0,1,15,39.22c-.18-.42-3.33-10.12-3.33-10.12h-.76v4.38s.17.75-1.21,1.51L4.84,37.73s-2.23.68-2.87-.55-.48-2.76.46-3.24,3.9-2.08,3.9-2.08V23.41s3.55-.87,3.55-5.78a6,6,0,0,0-2.39-5.28S8.34,11.08,11.12,11Z"/><path id="Backpack" d="M5.74,12H2.54C0,12,0,13.75,0,13.75v7.86a1.59,1.59,0,0,0,1.84,1.65h3.5S9.42,23,9.42,17.67,5.74,12,5.74,12ZM5.67,22.05V13.27s2.72-.22,2.72,4.36S5.67,22.05,5.67,22.05Z"/><circle id="Head" cx="11.12" cy="5.08" r="5.08"/></g></g></svg>